<svg xmlns="http://www.w3.org/2000/svg" width="200" height="35" viewBox="0 0 266 49.2"><path fill="#FFF" d="M148.6 2.9c-.1-.2-.2-.4-.5-.4H136c-.3 0-.4 0-.5.3l-18.8 37.9c-.2.4 0 .5.2.5h10.9c.2 0 .4-.2.5-.4.1-.1 2.5-5.5 2.6-5.7.2-.4.5-.7.8-.7h13.2c.1 0 .2 0 .2.1s1.5 6.2 1.5 6.3c.1.3.2.3.4.3h9.3c.1 0 .3-.1.2-.4.1-.2-7.9-37.6-7.9-37.8M143.5 26h-7.6c-.4 0-.4-.1-.3-.3.1-.2 5.2-11.8 5.3-11.9.1-.1.1-.2.2 0 0 .1 2.6 11.7 2.6 11.9-.1.2-.1.3-.2.3m-28.1 4.4c-.1-.1-.8.2-1.2.4-.7.3-3.8 1.6-6.9 1.6-3 0-5.8-.8-7.9-2.5-3-2.5-4.4-6.7-3-11.7 1.5-5.7 6.7-8.2 11.2-8.2.8 0 5.5-.1 9.9 3 .7.5 1 .7 1.1-.1.1-.7 1.4-7.1 1.6-8.2.1-.6.1-.7-.1-.8-1.4-1.2-3.4-2-5.2-2.6-1.4-.4-5.9-1.9-12.2-1-5 .6-10 3.4-13.3 7.3-1.3 1.6-6.9 9.4-4.1 20.4 1.9 7.5 8.2 13.3 16.9 14 1.3.1 6.4.5 11.1-1.5.4-.2.5-.4.6-.9.1-.5 1.5-8.6 1.5-8.6.2-.5 0-.6 0-.6m86.2-27.9h-10.2c-.2 0-.3 0-.3.2s-3 21-3 21c-.1.5-.3.5-.3.5s-.2 0-.4-.4c0 0-11.9-20.9-12-21.1-.1-.2-.2-.3-.4-.3h-10.7c-.2 0-.4.1-.4.4 0 .1-5.2 37.6-5.3 37.7 0 .3.2.5.4.5h9.7c.1 0 .3 0 .3-.2.1-.5 3.3-23.3 3.3-23.5 0-.2.1-.2.3 0 .1.1 13.2 23.5 13.3 23.6.1.1.1.1.3.1h9.7c.3 0 .4-.2.5-.4 0-.2 5.4-37.8 5.4-38 0 0-.1-.1-.2-.1m64.1 29H255c-.2 0-.4-.2-.4-.3V2.8c0-.2-.2-.3-.3-.3h-10.6c-.2 0-.3.2-.3.3v37.9c0 .2.2.3.3.3h22.1c.2 0 .3-.2.3-.3v-8.9c-.1-.1-.3-.3-.4-.3M225.3 2.8c-.1-.2-.2-.3-.4-.3h-10.3c-.2 0-.4.1-.4.3 0 0-14.6 37.9-14.6 38.1-.1.2 0 .3.2.3h10c.2 0 .4-.1.4-.3.1-.1 2.4-6.1 2.4-6.1.1-.2.3-.3.4-.3h13.2c.2 0 .4.1.4.3l2.3 6.1c.1.2.2.3.4.3h10.1c.2 0 .3-.1.2-.3L225.3 2.8zm-1.9 24h-7.7c-.2 0-.3-.1-.2-.3.1-.2 4-11.7 4-11.7.1-.2.1-.2.2 0 0 0 3.9 11.5 3.9 11.7.1.2 0 .3-.2.3M41.6 23.9c8.9-.3 9.9-11 11.2-17.7l-4.5-.1c.6 4.7 1.5 11.2 5.7 14.2 2.9 2 6.4 1.4 9-.6C67.7 16.1 73 7 69.9 1.1c-.7-1.3-3.6-1.6-4.2-.1-4.4 10.3 2.4 21.7 1.1 32.4-.5 4-2.1 9.1-5.5 11.6-3 2.2-6.4-1.1-5.7-4.2.7-3.2 3.8-6.1 6-8.4 3.1-3.2 6.7-6 10.2-8.8 5.6-4.4 4.7-2.9 10.1-7.6 2-1.7-1.8-3.3-3.3-2.5-1.1.6-2.3 2.3-3.4 3-2.5 1.4.7 3.6 2.6 2.5 1.1-.6 2.7-2 3.7-2.6-1.1-.8-2.2-1.7-3.3-2.5-6.6 5.7-7.2 5.1-14 10.6-4.8 4-15 11.6-13.2 19 .9 3.8 5.7 5.6 9.2 5.7 4.6 0 7.6-4.7 9.2-8.4 2-4.6 2.3-9.4 1.9-14.4-.6-7.7-4.6-16.4-1.4-24-1.4 0-2.8-.1-4.2-.1 2.1 3.9-2.1 10.6-4.6 13.4-1 1.1-3 3.2-4.5 1.9-3-2.6-3.5-8.4-3.9-12-.3-2-4.1-2.1-4.5-.1-.8 4.4-1.4 14.7-7.5 14.8-2.9.2-1.7 3.7.9 3.6"/><path fill="#FFF" d="M4.6 39c0-11.2 1.2-22.6 5.9-32.9-1.5.2-2.9.3-4.3.4 7.1 7.7 6.9 19.8 7.3 29.7.1 2.3 4.6 2.3 4.6 0-.2-8.8 2.7-19.3 7-27-1.4.1-2.8.3-4.2.4 2.7 2.7 3.5 7.7 4.4 11.2 1 3.8 1.6 7.9 3.1 11.5.7 1.6 3.8 1.8 4.4 0 2.3-6.8 3-15 6.6-21.3-1.4-.1-2.8-.3-4.2-.4 1.2 3.2 1.3 7.1 1.9 10.4.7 4.2 1.2 8.5 2.5 12.6.7 2.1 5.2 1.4 4.4-.9-1.3-4-1.8-8.4-2.4-12.5-.5-3.4-.7-7.2-1.9-10.5-.5-1.4-3.4-1.8-4.2-.4-3.8 6.7-4.6 14.9-7 22.1h4.4c-1.6-3.9-2.3-8.3-3.3-12.4-.9-3.6-1.8-8.4-4.6-11.2-1.2-1.2-3.3-1.2-4.2.4-4.4 7.9-7.3 18.8-7.1 28h4.6c-.6-10.4-.6-23.2-8.1-31.4-1.1-1.2-3.5-1.2-4.2.4C1.3 15.8 0 27.5 0 39c0 2.3 4.6 2.3 4.6 0"/></svg>
