<svg xmlns="http://www.w3.org/2000/svg" width="18.5" height="15" viewBox="0 0 18.5 15"><path fill="#FFF" fill-rule="evenodd" clip-rule="evenodd" d="M18.5 1.8c-.7.3-1.4.5-2.2.6.8-.5 1.4-1.2 1.7-2.1-.7.4-1.5.8-2.4.9C14.9.5 13.9 0 12.8 0 10.7 0 9 1.7 9 3.8c0 .3 0 .6.1.9C5.9 4.5 3.2 3 1.3.7 1 1.3.8 1.9.8 2.6c0 1.3.7 2.5 1.7 3.2-.6 0-1.2-.2-1.7-.5 0 1.8 1.3 3.4 3 3.7-.3.1-.7.1-1 .1-.2 0-.5 0-.7-.1.5 1.5 1.9 2.6 3.5 2.6-1.3 1-2.9 1.6-4.7 1.6-.3 0-.6 0-.9-.1C1.7 14.4 3.7 15 5.8 15c7 0 10.8-5.8 10.8-10.8v-.5c.7-.5 1.4-1.2 1.9-1.9z"/></svg>
