<svg xmlns="http://www.w3.org/2000/svg" width="18.5" height="15" viewBox="-288 413.9 18.5 15"><path fill="#FFF" d="M-276.9 426v-1.7c0-.4-.1-.5-.3-.5-.1 0-.2.1-.4.2v2.5c.1.1.2.2.4.2.2-.2.3-.4.3-.7zm2-1.4h.7v-.4c0-.4-.1-.6-.4-.6-.2 0-.4.2-.4.6l.1.4zm-6.3-2.9v.8h-.9v4.6h-.8v-4.6h-.9v-.8h2.6zm2.2 1.4v4h-.7v-.4c-.3.3-.6.5-.8.5-.2 0-.4-.1-.5-.3 0-.1-.1-.3-.1-.6v-3.2h.7v3.3c0 .1.1.2.2.2s.3-.1.5-.3v-3.1l.7-.1zm2.8 1.2v1.6c0 .4 0 .6-.1.8-.1.3-.3.5-.6.5s-.5-.2-.7-.5v.4h-.7v-5.4h.7v1.8c.2-.3.5-.4.7-.4.3 0 .5.2.6.5.1.1.1.3.1.7zm2.7 1.4v.6c0 .2-.1.3-.2.4-.2.3-.5.4-.9.4s-.7-.1-.9-.4c-.2-.2-.2-.5-.2-.9v-1.4c0-.4.1-.7.2-.9.2-.3.5-.4.9-.4s.7.1.9.4c.2.2.2.5.2.9v.8h-1.5v.7c0 .4.1.6.4.6.2 0 .3-.1.3-.3v-.1-.4h.8zm-4.9-9v1.7c0 .4-.1.6-.4.6-.2 0-.4-.2-.4-.6v-1.7c0-.4.1-.6.4-.6.3 0 .4.2.4.6zm5.8 7.8c0-1.3-.1-2.2-.2-2.9-.1-.3-.2-.6-.5-.8-.2-.2-.5-.3-.8-.4-1-.1-2.5-.2-4.5-.2s-3.5.1-4.5.2c-.3 0-.6.2-.8.4-.2.2-.4.5-.5.8-.1.6-.2 1.6-.2 2.9 0 1.3.1 2.2.2 2.9.1.3.2.6.5.8.2.2.5.3.8.4 1 .1 2.5.2 4.5.2s3.5-.1 4.5-.2c.3 0 .6-.2.8-.4.2-.2.4-.5.5-.8.2-.6.2-1.6.2-2.9zm-8.3-7.1l1-3.3h-.8l-.6 2.1-.6-2.1h-.9l.3.8s.1.3.3.8c.3.8.4 1.3.5 1.7v2.2h.8v-2.2zm3.2.9v-1.4c0-.4-.1-.7-.2-1-.2-.3-.5-.4-.9-.4s-.7.1-.9.4c-.2.2-.2.5-.2 1v1.4c0 .4.1.7.2 1 .2.3.5.4.9.4s.6-.1.9-.4c.1-.3.2-.6.2-1zm2 1.3h.7v-4.1h-.7v3.1c-.2.2-.3.3-.5.3-.1 0-.2-.1-.2-.2v-3.3h-.7v3.2c0 .3 0 .5.1.6.1.2.2.3.5.3s.5-.2.8-.5v.6z"/></svg>